<svg id="Layer_3" xmlns="http://www.w3.org/2000/svg" viewBox="0 0 946.3 946.3">
  <style>
    .st2{fill:none;stroke:#ee4343;stroke-width:31;stroke-miterlimit:10}
  </style>
  <circle cx="473.2" cy="473.2" r="473.1" fill="#fff"/>
  <path d="M312.8 736.2l-65.9-31.5-55.4-46.3L155 623l56.5 21.8.5.2 66.6 10.8 32.1-17.4 12.8-20.4 2.6-13.4-7.7-12.6 23.7 6.4 17.7-10.3 6.9-14.3 1.4-21.2-5.7-12.7-10.1-7 8.8-1 24.8-33.5-3.1-31.5-4-4 22.9-3 13.8-19.7 28.6-11.8 22.8-16 4.9-2.6 3.8-10.1-34.2 24L414 435l-29.3 3.5-29.2-8.7-18.2-30.5 4.7-22.2 45.2-53.9 34.6-30 28.6-9 11.7 5.6 72.6 89-1.3 27.2-.4 7.5-5.5 105.5-14.7 52 1.1 50.6 27.5 61.5 50.5 60.5 75 72 52.2 43.6c127.3-81.3 211.7-223.8 211.7-386 0-252.8-204.9-457.7-457.7-457.7S15.5 220.4 15.5 473.2c0 246.8 195.3 447.9 439.7 457.3l-34.3-52.7-108.1-141.6zm82.3-428.5l10.1-26.4-5.1-27.5-3-18.4 4-16.7 18.5-41.7 38.5-89 27.2-55.3 3.4 1.4-23.4 71.3-25 68.9-7.6 21.1 2.4 3.2 5.1-6 27.1-58.3 36.4-94.1 3.1 1.3-21 66.7-25.4 73.8-7.6 21.7 2.6 2.7 4.2-3.9 16-33 26.8-67L523 47.9l2.9 1.2-25.2 83.4-25.7 76.2-.4 6.8 4.3-.2 12.8-27.9 28.9-81.5 18.6-51.5 3 1.2-8.4 40.4-24.9 86.2-23.6 63-11.8 16.9-9.6 9.4-14.4 7.4-30.3 9.5-25 21.6.9-2.3zm-153.1 3l31.9-19.4 11.6 1 38.1 6.2 10.6 5.1 35.3 32.1-32.7 39-5.4 25.6 20.4 34.1 32.3 9.6 24.1-2.9-9.7 13.8-22.6 3-20.1-12.4-44.2-42.8-48-31.4-21.2-10.2-6-39 5.6-11.4zm-62.7 66.2l27-13.3 29 2.6 2.7-1.2 23 11 47.3 30.9 44.2 42.8 14.5 8.9 10.6 10.7 2.7 27.5-22.2 29.9-16 1.9-65.8-47.6-63.4-22.8-44.1-47.4 10.5-33.9zm-34.7 83.8l17.5-10.9 12.6-3.3 31.5 12.5 3.6 3.8 63.9 23 66.9 48.5 3.6-.4 13.8 9.6 4.6 10.1-1.2 18.8-5.7 11.9-14.3 8.3-26.9-7.2-86.5-34.5-57.5-24.7-26.1-19-5-22.1 5.2-24.4zm.5 152.8l-15.1-19-23.8-42.3 7.4-15.5 8.7-7.5 19-7.9 25.4 9.4 147 64.1 6.7 11-2 10.4-11.5 18.3-29.3 15.8-64.2-10.5-68.3-26.3z" fill="#ee4243"/>
  <circle class="st2" cx="473.2" cy="473.2" r="457.7"/>
  <path class="st2" d="M930.8 473.2c0 252.8-204.9 457.7-457.7 457.7S15.5 725.9 15.5 473.2"/>
</svg>
